<svg id="グループ_108" data-name="グループ 108" xmlns="http://www.w3.org/2000/svg" width="572.943" height="74.669" viewBox="0 0 572.943 74.669">
  <g id="グループ_14" data-name="グループ 14" transform="translate(157.169 15.862)">
    <g id="グループ_13" data-name="グループ 13">
      <g id="グループ_12" data-name="グループ 12">
        <g id="グループ_11" data-name="グループ 11">
          <g id="グループ_10" data-name="グループ 10">
            <g id="グループ_9" data-name="グループ 9">
              <g id="グループ_8" data-name="グループ 8" transform="translate(111.113)">
                <path id="パス_18" data-name="パス 18" d="M2326.261,213.485h-12.836v-33.85a2.975,2.975,0,0,0-5.939,0v36.512a2.784,2.784,0,0,0,2.969,2.8h15.805a2.733,2.733,0,0,0,0-5.46Z" transform="translate(-2307.486 -176.479)" fill="#fff"/>
                <path id="パス_19" data-name="パス 19" d="M2334.861,179.993a4.142,4.142,0,0,0-8.042-.006l-10.594,35.249a3.639,3.639,0,0,0-.206,1.159,2.833,2.833,0,0,0,3.091,2.671,2.754,2.754,0,0,0,2.765-1.964l2.623-9.473h12.686l2.673,9.34a2.726,2.726,0,0,0,2.78,2.1,2.839,2.839,0,0,0,3.091-2.671,4.888,4.888,0,0,0-.175-1.08Zm-4.022,5,.769,2.9,4.078,14.395h-9.692l4.087-14.407Z" transform="translate(-2290.783 -176.479)" fill="#fff"/>
                <path id="パス_20" data-name="パス 20" d="M2347.056,197.293a10.334,10.334,0,0,0,4.253-8.752c0-7.412-4.528-11.659-12.431-11.659h-7.9a2.8,2.8,0,0,0-2.975,2.8v36.391a2.766,2.766,0,0,0,2.975,2.8h8.681c8.164,0,13.028-4.49,13.028-12.011C2352.684,201.392,2349.842,198.662,2347.056,197.293Zm-8.178-2.443h-4.933v-12.5h4.933c3.939,0,6.487,2.419,6.487,6.187C2345.365,192.427,2342.874,194.85,2338.878,194.85Zm.778,18.559h-5.711v-13.1h5.77c4.466,0,7.025,2.381,7.025,6.545S2344.157,213.409,2339.656,213.409Z" transform="translate(-2267.328 -176.403)" fill="#fff"/>
                <path id="パス_21" data-name="パス 21" d="M2351.532,176.72a12.892,12.892,0,0,0-13.147,13.212v16.521a13.15,13.15,0,1,0,26.3,0V189.932A12.9,12.9,0,0,0,2351.532,176.72Zm0,37.479c-4.1,0-7.2-3.321-7.2-7.746V189.932c0-4.49,3.025-7.74,7.2-7.74s7.211,3.25,7.211,7.74v16.521C2358.742,210.946,2355.708,214.2,2351.532,214.2Z" transform="translate(-2246.997 -176.72)" fill="#fff"/>
                <path id="パス_22" data-name="パス 22" d="M2367.028,201.111c4.617-2.162,7.151-6.261,7.151-11.618,0-7.424-5.376-12.611-13.1-12.611h-8.439a2.767,2.767,0,0,0-2.969,2.8V216.2a2.975,2.975,0,0,0,5.939,0v-13.91h5.462l8.429,14.986a2.913,2.913,0,0,0,2.715,1.715,2.851,2.851,0,0,0,2.969-2.792,3.546,3.546,0,0,0-.44-1.633Zm1.272-11.618c0,4.587-2.721,7.329-7.273,7.329h-5.412V182.354h5.469C2365.47,182.354,2368.3,185.155,2368.3,189.493Z" transform="translate(-2224.893 -176.403)" fill="#fff"/>
                <path id="パス_23" data-name="パス 23" d="M2378.693,179.993a4.146,4.146,0,0,0-8.048-.006l-10.589,35.249a3.576,3.576,0,0,0-.213,1.159,2.837,2.837,0,0,0,3.091,2.671,2.77,2.77,0,0,0,2.771-1.964l2.624-9.473h12.686l2.673,9.34a2.72,2.72,0,0,0,2.775,2.1,2.834,2.834,0,0,0,3.09-2.671,4.435,4.435,0,0,0-.174-1.08Zm-4.023,5,.763,2.9,4.079,14.395h-9.686l4.084-14.407Z" transform="translate(-2204.987 -176.479)" fill="#fff"/>
                <path id="パス_24" data-name="パス 24" d="M2394.359,176.882h-22.39a2.737,2.737,0,0,0,0,5.472h8.226V216.2a2.978,2.978,0,0,0,5.945,0V182.354h8.219a2.736,2.736,0,0,0,0-5.472Z" transform="translate(-2186.462 -176.403)" fill="#fff"/>
                <path id="パス_25" data-name="パス 25" d="M2392.995,176.72a12.888,12.888,0,0,0-13.147,13.212v16.521a13.147,13.147,0,1,0,26.294,0V189.932A12.888,12.888,0,0,0,2392.995,176.72Zm0,37.479c-4.108,0-7.21-3.321-7.21-7.746V189.932c0-4.49,3.035-7.74,7.21-7.74s7.205,3.25,7.205,7.74v16.521C2400.2,210.946,2397.171,214.2,2392.995,214.2Z" transform="translate(-2165.827 -176.72)" fill="#fff"/>
                <path id="パス_26" data-name="パス 26" d="M2408.481,201.111c4.62-2.162,7.158-6.261,7.158-11.618,0-7.424-5.383-12.611-13.09-12.611H2394.1a2.759,2.759,0,0,0-2.963,2.8V216.2a2.972,2.972,0,0,0,5.933,0v-13.91h5.462l8.429,14.986a2.917,2.917,0,0,0,2.721,1.715,2.855,2.855,0,0,0,2.97-2.792,3.618,3.618,0,0,0-.447-1.633Zm1.271-11.618c0,4.587-2.715,7.329-7.266,7.329h-5.413V182.354h5.475C2406.928,182.354,2409.753,185.155,2409.753,189.493Z" transform="translate(-2143.719 -176.403)" fill="#fff"/>
                <path id="パス_27" data-name="パス 27" d="M2426.792,176.824a2.823,2.823,0,0,0-2.407,1.467l-9.152,16.474-9.062-16.4a2.975,2.975,0,0,0-5.581,1.307,3.369,3.369,0,0,0,.443,1.576l11.236,19.133v15.93a2.972,2.972,0,0,0,5.933,0v-15.93l11.23-19.127a3.35,3.35,0,0,0,.45-1.582A2.911,2.911,0,0,0,2426.792,176.824Z" transform="translate(-2125.221 -176.516)" fill="#fff"/>
              </g>
              <path id="パス_28" data-name="パス 28" d="M2288.7,213.485h-12.837v-33.85a2.978,2.978,0,0,0-5.945,0v36.512a2.79,2.79,0,0,0,2.976,2.8H2288.7a2.733,2.733,0,0,0,0-5.46Z" transform="translate(-2269.917 -176.479)" fill="#fff"/>
              <path id="パス_29" data-name="パス 29" d="M2281.885,176.843a2.758,2.758,0,0,0-2.963,2.792v36.639a2.975,2.975,0,0,0,5.938,0V179.635A2.761,2.761,0,0,0,2281.885,176.843Z" transform="translate(-2252.291 -176.479)" fill="#fff"/>
              <path id="パス_30" data-name="パス 30" d="M2302.933,176.882h-16.462a2.8,2.8,0,0,0-2.975,2.8V216.2a2.975,2.975,0,0,0,5.938,0V200.845h13.5a2.731,2.731,0,0,0,0-5.46h-13.5V182.354h13.5a2.737,2.737,0,0,0,0-5.472Z" transform="translate(-2243.337 -176.403)" fill="#fff"/>
              <path id="パス_31" data-name="パス 31" d="M2312.265,182.354a2.737,2.737,0,0,0,0-5.472h-16.341a2.831,2.831,0,0,0-2.976,2.8v36.391a2.79,2.79,0,0,0,2.976,2.8h16.341a2.731,2.731,0,0,0,0-5.46h-13.372V200.434h13.372a2.732,2.732,0,0,0,0-5.463h-13.372V182.354Z" transform="translate(-2224.831 -176.403)" fill="#fff"/>
            </g>
          </g>
        </g>
      </g>
    </g>
  </g>
  <g id="グループ_16" data-name="グループ 16">
    <g id="グループ_15" data-name="グループ 15">
      <path id="パス_32" data-name="パス 32" d="M2254.685,171.357a6.8,6.8,0,0,0-5,2.887L2231.464,205.8a6.78,6.78,0,0,0,0,5.77l18.219,31.564a6.137,6.137,0,0,0,2.177,2,6.072,6.072,0,0,0,2.824.884h12.934l-18.13-31.389a12.756,12.756,0,0,1,0-11.89l18.119-31.384Z" transform="translate(-2230.82 -171.357)" fill="#fff"/>
      <path id="パス_33" data-name="パス 33" d="M2258.293,171.359l-18.124,31.384a12.8,12.8,0,0,0,0,11.89l18.127,31.389h17.2l-18.131-31.389a12.811,12.811,0,0,1,0-11.89l18.131-31.384Z" transform="translate(-2215.384 -171.353)" fill="#fff"/>
    </g>
    <path id="パス_34" data-name="パス 34" d="M2273.086,203.782l-18.128-31.39-3.058,5.294,15.07,26.1a6.833,6.833,0,0,1,0,5.767l-15.07,26.1,3.062,5.291,18.125-31.389A6.81,6.81,0,0,0,2273.086,203.782Z" transform="translate(-2189.553 -169.331)" fill="#fff"/>
  </g>
</svg>
